<svg width="41" height="40" viewBox="0 0 41 40" fill="none" xmlns="http://www.w3.org/2000/svg">
<path d="M36.2768 0H4.84821C2.48214 0 0.5625 1.91964 0.5625 4.28571V35.7143C0.5625 38.0804 2.48214 40 4.84821 40H36.2768C38.6429 40 40.5625 38.0804 40.5625 35.7143V4.28571C40.5625 1.91964 38.6429 0 36.2768 0ZM25.3214 34.2589C24.5714 34.3929 24.2946 33.9286 24.2946 33.5446C24.2946 33.0625 24.3125 30.5982 24.3125 28.6071C24.3125 27.2143 23.8482 26.3304 23.3036 25.8661C26.6071 25.5 30.0893 25.0446 30.0893 19.3393C30.0893 17.7143 29.5089 16.9018 28.5625 15.8571C28.7143 15.4732 29.2232 13.8929 28.4107 11.8393C27.1696 11.4554 24.3304 13.4375 24.3304 13.4375C23.1518 13.1071 21.875 12.9375 20.6161 12.9375C19.3571 12.9375 18.0804 13.1071 16.9018 13.4375C16.9018 13.4375 14.0625 11.4554 12.8214 11.8393C12.0089 13.8839 12.5089 15.4643 12.6696 15.8571C11.7232 16.9018 11.2768 17.7143 11.2768 19.3393C11.2768 25.0179 14.6071 25.5 17.9107 25.8661C17.4821 26.25 17.0982 26.9107 16.9643 27.8571C16.1161 28.2411 13.9464 28.9018 12.6518 26.6161C11.8393 25.2054 10.375 25.0893 10.375 25.0893C8.92857 25.0714 10.2768 26 10.2768 26C11.2411 26.4464 11.9196 28.1607 11.9196 28.1607C12.7857 30.8125 16.9286 29.9196 16.9286 29.9196C16.9286 31.1607 16.9464 33.1786 16.9464 33.5446C16.9464 33.9286 16.6786 34.3929 15.9196 34.2589C10.0268 32.2857 5.90179 26.6786 5.90179 20.125C5.90179 11.9286 12.1696 5.70536 20.3661 5.70536C28.5625 5.70536 35.2054 11.9286 35.2054 20.125C35.2143 26.6786 31.2143 32.2946 25.3214 34.2589ZM16.5625 28.8036C16.3929 28.8393 16.2321 28.7679 16.2143 28.6518C16.1964 28.5179 16.3125 28.4018 16.4821 28.3661C16.6518 28.3482 16.8125 28.4196 16.8304 28.5357C16.8571 28.6518 16.7411 28.7679 16.5625 28.8036ZM15.7143 28.7232C15.7143 28.8393 15.5804 28.9375 15.4018 28.9375C15.2054 28.9554 15.0714 28.8571 15.0714 28.7232C15.0714 28.6071 15.2054 28.5089 15.3839 28.5089C15.5536 28.4911 15.7143 28.5893 15.7143 28.7232ZM14.4911 28.625C14.4554 28.7411 14.2768 28.7946 14.125 28.7411C13.9554 28.7054 13.8393 28.5714 13.875 28.4554C13.9107 28.3393 14.0893 28.2857 14.2411 28.3214C14.4196 28.375 14.5357 28.5089 14.4911 28.625ZM13.3929 28.1429C13.3125 28.2411 13.1429 28.2232 13.0089 28.0893C12.875 27.9732 12.8393 27.8036 12.9286 27.7232C13.0089 27.625 13.1786 27.6429 13.3125 27.7768C13.4286 27.8929 13.4732 28.0714 13.3929 28.1429ZM12.5804 27.3304C12.5 27.3839 12.3482 27.3304 12.25 27.1964C12.1518 27.0625 12.1518 26.9107 12.25 26.8482C12.3482 26.7679 12.5 26.8304 12.5804 26.9643C12.6786 27.0982 12.6786 27.2589 12.5804 27.3304ZM12 26.4643C11.9196 26.5446 11.7857 26.5 11.6875 26.4107C11.5893 26.2946 11.5714 26.1607 11.6518 26.0982C11.7321 26.0179 11.8661 26.0625 11.9643 26.1518C12.0625 26.2679 12.0804 26.4018 12 26.4643ZM11.4018 25.8036C11.3661 25.8839 11.25 25.9018 11.1518 25.8393C11.0357 25.7857 10.9821 25.6875 11.0179 25.6071C11.0536 25.5536 11.1518 25.5268 11.2679 25.5714C11.3839 25.6339 11.4375 25.7321 11.4018 25.8036Z" fill="#F43F5E"/>
</svg>
