<svg width="40" height="35" viewBox="0 0 40 35" fill="none" xmlns="http://www.w3.org/2000/svg">
<path d="M1.25 7.5H33.75C34.4406 7.5 35 6.94063 35 6.25V1.25C35 0.559375 34.4406 0 33.75 0H1.25C0.559375 0 0 0.559375 0 1.25V6.25C0 6.94063 0.559375 7.5 1.25 7.5ZM38.75 13.75H6.25C5.55937 13.75 5 14.3094 5 15V20C5 20.6906 5.55937 21.25 6.25 21.25H38.75C39.4406 21.25 40 20.6906 40 20V15C40 14.3094 39.4406 13.75 38.75 13.75ZM33.75 27.5H1.25C0.559375 27.5 0 28.0594 0 28.75V33.75C0 34.4406 0.559375 35 1.25 35H33.75C34.4406 35 35 34.4406 35 33.75V28.75C35 28.0594 34.4406 27.5 33.75 27.5Z" fill="#F43F5E"/>
</svg>
